<?xml version="1.0" encoding="UTF-8"?>
<svg xmlns="http://www.w3.org/2000/svg" viewBox="0 0 24 24" fill="currentColor">
  <path d="M20,15H4c-1.1,0-2,0.9-2,2v2c0,1.1,0.9,2,2,2h16c1.1,0,2-0.9,2-2v-2C22,15.9,21.1,15,20,15z M5,19c-0.55,0-1-0.45-1-1
    s0.45-1,1-1s1,0.45,1,1S5.55,19,5,19z M8,19c-0.55,0-1-0.45-1-1s0.45-1,1-1s1,0.45,1,1S8.55,19,8,19z M13,19h-2c-0.55,0-1-0.45-1-1
    s0.45-1,1-1h2c0.55,0,1,0.45,1,1S13.55,19,13,19z"/>
  <path d="M19,6.4L17.6,5c-0.4-0.4-1-0.4-1.4,0L13,8.2c-2.5-1-5.5-0.1-7.1,2.2c-0.2,0.3-0.2,0.8,0.1,1.1l3.7,3.7c0.3,0.3,0.8,0.3,1.1,0.1
    c2.3-1.6,3.2-4.6,2.2-7.1l3.2-3.2C19.4,7.4,19.4,6.8,19,6.4z M7.5,17C6.7,17,6,16.3,6,15.5S6.7,14,7.5,14S9,14.7,9,15.5S8.3,17,7.5,17z"/>
</svg>